SplineFontDB: 3.2
FontName: Untitled1
FullName: Untitled1
FamilyName: Untitled1
Weight: Regular
Copyright: Copyright (c) 2024, KaraFae
UComments: "2024-11-5: Created with FontForge (http://fontforge.org)"
Version: 001.000
ItalicAngle: 0
UnderlinePosition: -100
UnderlineWidth: 50
Ascent: 800
Descent: 200
InvalidEm: 0
LayerCount: 2
Layer: 0 0 "Back" 1
Layer: 1 0 "Fore" 0
XUID: [1021 294 -80268739 19111]
StyleMap: 0x0000
FSType: 0
OS2Version: 0
OS2_WeightWidthSlopeOnly: 0
OS2_UseTypoMetrics: 1
CreationTime: 1730862832
ModificationTime: 1732597630
OS2TypoAscent: 0
OS2TypoAOffset: 1
OS2TypoDescent: 0
OS2TypoDOffset: 1
OS2TypoLinegap: 90
OS2WinAscent: 0
OS2WinAOffset: 1
OS2WinDescent: 0
OS2WinDOffset: 1
HheadAscent: 0
HheadAOffset: 1
HheadDescent: 0
HheadDOffset: 1
DEI: 91125
Encoding: ISO8859-1
UnicodeInterp: none
NameList: AGL For New Fonts
DisplaySize: -48
AntiAlias: 1
FitToEm: 0
WidthSeparation: 150
WinInfo: 0 51 20
BeginChars: 256 58

StartChar: a
Encoding: 97 97 0
Width: 688
Flags: HW
LayerCount: 2
Back
Fore
SplineSet
112 799 m 1
 581 800 l 1
 215 55 l 5
 648 -200 l 1
 338 -200 l 1
 48 -15 l 1
 375 652 l 1
 72 652 l 1
 112 799 l 1
EndSplineSet
Validated: 1
EndChar

StartChar: b
Encoding: 98 98 1
Width: 597
Flags: HW
LayerCount: 2
Back
SplineSet
53.9599609375 800 m 1
 193.959960938 800 l 1
 191.959960938 632 l 1
 351.959960938 800 l 1
 495.959960938 800 l 1
 499.959960938 -200 l 1
 357.959960938 -200 l 25
 357.959960938 610 l 25
 191.959960938 451 l 25
 191.959960938 -200 l 1
 45.9599609375 -200 l 1
 53.9599609375 800 l 1
EndSplineSet
Fore
SplineSet
79 800 m 5
 219 800 l 5
 217 632 l 5
 377 800 l 5
 521 800 l 5
 525 -200 l 5
 383 -200 l 29
 383 610 l 29
 217 451 l 29
 217 -200 l 5
 71 -200 l 5
 79 800 l 5
EndSplineSet
Validated: 1
EndChar

StartChar: c
Encoding: 99 99 2
Width: 718
Flags: HW
LayerCount: 2
Back
Fore
SplineSet
49 599 m 5
 156 800 l 1
 204 755 l 1
 195 744 l 1
 617 744 l 1
 279 148 l 1
 414 -49 l 1
 669 -49 l 1
 627 -200 l 1
 85 -200 l 1
 130 -50 l 1
 199 -50 l 1
 78 114 l 1
 347 601 l 5
 49 599 l 5
EndSplineSet
Validated: 1
EndChar

StartChar: d
Encoding: 100 100 3
Width: 585
Flags: HW
LayerCount: 2
Back
Fore
SplineSet
74 771 m 1
 211 800 l 1
 211 588 l 1
 374 588 l 1
 376 771 l 1
 511 800 l 1
 511 446 l 1
 208 444 l 1
 204 -44 l 25
 373 -45 l 25
 375 234 l 1
 510 270 l 1
 510 -200 l 1
 75 -200 l 1
 74 771 l 1
EndSplineSet
Validated: 1
EndChar

StartChar: e
Encoding: 101 101 4
Width: 673
Flags: HW
LayerCount: 2
Back
Fore
SplineSet
76 800 m 1
 207 798 l 1
 205 645 l 1
 354 800 l 1
 606 800 l 1
 606 173 l 1
 230 172 l 1
 230 -26 l 1
 552 -25 l 1
 505 -200 l 1
 76 -200 l 25
 75 318 l 25
 466 324 l 25
 465 608 l 1
 465 694 l 1
 229 470 l 1
 75 444 l 1
 76 800 l 1
EndSplineSet
Validated: 1
EndChar

StartChar: f
Encoding: 102 102 5
Width: 482
Flags: HW
LayerCount: 2
Back
Fore
SplineSet
55 326 m 25
 151 443 l 1
 228 388 l 25
 135 255 l 1
 55 326 l 25
59 584 m 25
 155 701 l 1
 232 646 l 25
 139 513 l 1
 59 584 l 25
407 800 m 1
 408 -200 l 1
 59 -200 l 25
 85 -69 l 1
 287 -68 l 25
 289 768 l 1
 407 800 l 1
EndSplineSet
Validated: 1
EndChar

StartChar: g
Encoding: 103 103 6
Width: 637
Flags: HW
LayerCount: 2
Back
Fore
SplineSet
389 -71 m 1
 318 78 l 1
 247 -71 l 5
 389 -71 l 1
236 800 m 1
 236 603 l 1
 334 404 l 25
 416 571 l 25
 412 774 l 25
 549 800 l 25
 553 578 l 1
 401 264 l 1
 589 -200 l 1
 45 -200 l 1
 249 229 l 1
 98 555 l 1
 99 774 l 1
 236 800 l 1
EndSplineSet
Validated: 1
EndChar

StartChar: h
Encoding: 104 104 7
Width: 544
Flags: HW
LayerCount: 2
Back
Fore
SplineSet
91 800 m 25
 494 800 l 1
 281 450 l 1
 281 430 l 1
 470 233 l 1
 469 -201 l 25
 81 -197 l 25
 81 -86 l 25
 326 -87 l 25
 332 217 l 1
 219 341 l 25
 123 250 l 1
 59 328 l 1
 159 433 l 1
 53 581 l 1
 149 580 l 1
 175 552 l 1
 277 706 l 1
 65 707 l 1
 91 800 l 25
EndSplineSet
Validated: 1
EndChar

StartChar: i
Encoding: 105 105 8
Width: 661
Flags: HW
LayerCount: 2
Back
Fore
SplineSet
472 176 m 25
 598 210 l 25
 596 -146 l 25
 472 -200 l 25
 472 176 l 25
44 799 m 1
 536 800 l 1
 536 657 l 1
 372 656 l 1
 371 584 l 25
 550 390 l 1
 308 284 l 1
 310 -200 l 1
 180 -200 l 1
 182 339 l 1
 350 399 l 25
 44 799 l 1
EndSplineSet
Validated: 1
EndChar

StartChar: j
Encoding: 106 106 9
Width: 537
Flags: HW
LayerCount: 2
Back
Fore
SplineSet
78 440 m 1
 86 776 l 1
 223 800 l 1
 223 463 l 1
 349 333 l 1
 347 785 l 1
 471 800 l 1
 471 217 l 1
 275 -90 l 1
 275 -103 l 1
 421 -105 l 1
 385 -200 l 25
 49 -200 l 1
 333 186 l 1
 78 440 l 1
EndSplineSet
Validated: 1
EndChar

StartChar: k
Encoding: 107 107 10
Width: 551
Flags: HW
LayerCount: 2
Back
Fore
SplineSet
75 -201 m 25
 71 402 l 25
 215 415 l 25
 217 -178 l 25
 75 -201 l 25
77 581 m 1
 77 800 l 1
 487 799 l 1
 487 451 l 1
 360 446 l 1
 360 683 l 1
 218 682 l 1
 219 600 l 25
 77 581 l 1
EndSplineSet
Validated: 1
EndChar

StartChar: l
Encoding: 108 108 11
Width: 591
Flags: HW
LayerCount: 2
Back
Fore
SplineSet
376 186 m 25
 520 221 l 1
 520 -200 l 25
 73 -200 l 25
 75 474 l 1
 211 505 l 1
 213 -24 l 1
 374 -23 l 1
 376 186 l 25
61 754 m 1
 177 800 l 1
 413 632 l 1
 283 584 l 1
 61 754 l 1
EndSplineSet
Validated: 1
EndChar

StartChar: m
Encoding: 109 109 12
Width: 643
Flags: HW
LayerCount: 2
Back
Fore
SplineSet
570 464 m 1
 570 -155 l 1
 401 -201 l 1
 403 228 l 1
 241 60 l 25
 69 17 l 1
 69 362 l 1
 241 409 l 1
 241 229 l 1
 406 419 l 1
 570 464 l 1
69 753 m 1
 241 800 l 1
 241 644 l 1
 397 644 l 1
 398 753 l 1
 570 800 l 1
 570 507 l 1
 69 508 l 1
 69 753 l 1
EndSplineSet
Validated: 1
EndChar

StartChar: n
Encoding: 110 110 13
Width: 689
Flags: HW
LayerCount: 2
Back
Fore
SplineSet
394 -46 m 1
 346 31 l 1
 298 -46 l 1
 394 -46 l 1
48 -200 m 1
 395 514 l 1
 394 769 l 1
 533 800 l 1
 534 446 l 1
 428 185 l 1
 644 -200 l 1
 48 -200 l 1
86 769 m 5
 248 800 l 1
 248 487 l 1
 86 444 l 1
 86 769 l 5
EndSplineSet
Validated: 1
EndChar

StartChar: o
Encoding: 111 111 14
Width: 632
Flags: HW
LayerCount: 2
Back
Fore
SplineSet
564 801 m 1
 554 -161 l 1
 407 -199 l 1
 407 249 l 1
 209 -186 l 1
 54 -124 l 1
 240 290 l 1
 58 626 l 1
 192 720 l 1
 324 480 l 1
 403 655 l 1
 403 755 l 5
 564 801 l 1
EndSplineSet
Validated: 1
EndChar

StartChar: p
Encoding: 112 112 15
Width: 645
Flags: HW
LayerCount: 2
Back
Fore
SplineSet
412 275 m 5
 295 352 l 5
 497 616 l 5
 599 539 l 29
 532 457 l 5
 532 -200 l 5
 412 -200 l 5
 412 275 l 5
64 26 m 5
 66 509 l 5
 297 800 l 5
 400 720 l 5
 213 497 l 5
 206 26 l 5
 64 26 l 5
EndSplineSet
Validated: 1
EndChar

StartChar: q
Encoding: 113 113 16
Width: 560
Flags: HW
LayerCount: 2
Back
Fore
SplineSet
112 800 m 5
 515 790 l 1
 469 688 l 1
 316 351 l 1
 370 310 l 1
 358 263 l 1
 359 143 l 1
 463 101 l 1
 360 0 l 1
 359 -155 l 1
 201 -200 l 1
 202 167 l 1
 47 201 l 1
 88 276 l 1
 152 376 l 1
 178 418 l 1
 276 642 l 25
 98 642 l 25
 112 800 l 5
EndSplineSet
Validated: 1
EndChar

StartChar: r
Encoding: 114 114 17
Width: 590
Flags: HW
LayerCount: 2
Back
Fore
SplineSet
98 800 m 5
 247 800 l 5
 247 329 l 5
 277 378 l 5
 368 548 l 5
 370 800 l 5
 519 800 l 5
 517 -119 l 5
 371 -201 l 29
 371 155 l 5
 371 191 l 29
 183 -201 l 5
 49 -121 l 5
 191 194 l 5
 98 194 l 5
 98 800 l 5
EndSplineSet
Validated: 1
EndChar

StartChar: s
Encoding: 115 115 18
Width: 661
Flags: HW
LayerCount: 2
Back
Fore
SplineSet
225 537 m 5
 360 685 l 1
 498 633 l 1
 368 479 l 1
 225 537 l 5
67 762 m 25
 218 800 l 1
 218 380 l 1
 613 -200 l 1
 67 -200 l 1
 111 -31 l 1
 308 -31 l 25
 67 298 l 1
 67 762 l 25
EndSplineSet
Validated: 1
EndChar

StartChar: t
Encoding: 116 116 19
Width: 567
Flags: HW
LayerCount: 2
Back
Fore
SplineSet
358 23 m 1
 359 221 l 1
 487 234 l 1
 486 -200 l 25
 77 -200 l 1
 144 -80 l 1
 351 -78 l 25
 366 -61 l 25
 366 4 l 1
 358 23 l 1
121 797 m 25
 500 797 l 25
 500 438 l 25
 234 217 l 25
 45 219 l 25
 373 514 l 1
 356 645 l 25
 106 644 l 1
 121 797 l 25
EndSplineSet
Validated: 1
EndChar

StartChar: u
Encoding: 117 117 20
Width: 572
Flags: HW
LayerCount: 2
Back
Fore
SplineSet
73 748 m 1
 217 800 l 1
 217 300 l 1
 357 300 l 1
 357 748 l 1
 503 800 l 25
 503 145 l 1
 215 145 l 25
 215 -167 l 1
 73 -200 l 25
 73 748 l 1
EndSplineSet
Validated: 1
EndChar

StartChar: v
Encoding: 118 118 21
Width: 581
Flags: HW
LayerCount: 2
Back
Fore
SplineSet
367 274 m 29
 495 328 l 29
 495 -184 l 29
 367 -200 l 29
 367 274 l 29
108 673 m 29
 144 800 l 5
 534 800 l 29
 179 116 l 29
 179 -190 l 29
 65 -199 l 29
 64 123 l 29
 329 672 l 5
 108 673 l 29
EndSplineSet
Validated: 1
EndChar

StartChar: w
Encoding: 119 119 22
Width: 541
Flags: HW
LayerCount: 2
Back
Fore
SplineSet
67 -200 m 25
 67 208 l 1
 187 208 l 25
 187 -84 l 1
 415 -84 l 1
 414 -200 l 1
 67 -200 l 25
83 498 m 25
 391 800 l 25
 495 723 l 25
 410 637 l 25
 412 257 l 1
 270 256 l 1
 270 500 l 1
 175 410 l 1
 83 498 l 25
EndSplineSet
Validated: 1
EndChar

StartChar: x
Encoding: 120 120 23
Width: 609
Flags: HW
LayerCount: 2
Back
Fore
SplineSet
202 800 m 29
 204 254 l 29
 555 -141 l 29
 555 -200 l 29
 86 -196 l 29
 144 -66 l 29
 280 -66 l 29
 65 176 l 29
 69 720 l 29
 202 800 l 29
343 725 m 29
 474 800 l 29
 477 332 l 29
 345 290 l 29
 343 725 l 29
EndSplineSet
Validated: 1
EndChar

StartChar: y
Encoding: 121 121 24
Width: 573
Flags: HW
LayerCount: 2
Back
Fore
SplineSet
227 213 m 25
 376 -200 l 25
 73 -200 l 29
 118 -50 l 25
 165 -50 l 29
 69 213 l 29
 227 213 l 25
264 800 m 25
 408 800 l 25
 514 518 l 25
 370 517 l 25
 264 800 l 25
51 800 m 25
 209 800 l 1
 525 -10 l 25
 366 -12 l 1
 51 800 l 25
EndSplineSet
Validated: 1
EndChar

StartChar: z
Encoding: 122 122 25
Width: 557
Flags: HW
LayerCount: 2
Back
Fore
SplineSet
353 310 m 29
 359 770 l 5
 483 800 l 29
 485 -151 l 29
 357 -199 l 5
 357 54 l 29
 189 -200 l 5
 55 -156 l 5
 353 310 l 29
76 770 m 29
 196 800 l 29
 198 424 l 29
 76 394 l 29
 76 770 l 29
EndSplineSet
Validated: 1
EndChar

StartChar: A
Encoding: 65 65 26
Width: 1031
Flags: HW
LayerCount: 2
Fore
SplineSet
649 55 m 1049
458 24 m 1049
794 674 m 1
 458 24 l 1
 513 -24 l 5
 705 -14 l 1
 649 55 l 1
 986 800 l 1
 155 800 l 1
 79 669 l 1
 388 674 l 1
 47 -15 l 1
 337 -200 l 1
 617 -200 l 9
 225 -24 l 25
 563 674 l 25
 794 674 l 1
EndSplineSet
Validated: 9
EndChar

StartChar: B
Encoding: 66 66 27
Width: 918
Flags: HW
LayerCount: 2
Fore
SplineSet
387 -200 m 25
 387 610 l 25
 223 451 l 25
 223 -200 l 1
 75 -200 l 1
 75 800 l 1
 223 800 l 1
 223 632 l 1
 381 800 l 1
 533 800 l 1
 533 632 l 1
 691 800 l 1
 843 800 l 1
 843 -200 l 1
 691 -200 l 25
 691 610 l 25
 533 451 l 25
 533 -200 l 1
 387 -200 l 25
EndSplineSet
Validated: 1
EndChar

StartChar: C
Encoding: 67 67 28
Width: 971
Flags: HW
LayerCount: 2
Fore
SplineSet
90 -200 m 1
 172 -53 l 1
 179 -53 l 1
 49 101 l 1
 327 635 l 1
 63 633 l 1
 136 797 l 1
 164 741 l 1
 266 741 l 9
 485 742 l 25
 536 796 l 1
 564 740 l 1
 623 740 l 1
 910 740 l 1
 648 120 l 1
 789 -53 l 1
 790 -53 l 1
 925 -200 l 1
 515 -201 l 1
 90 -200 l 1
564 -57 m 1
 460 100 l 13
 693 626 l 25
 507 629 l 25
 255 101 l 25
 381 -57 l 25
 520 -57 l 25
 564 -57 l 1
EndSplineSet
Validated: 1
EndChar

StartChar: D
Encoding: 68 68 29
Width: 910
Flags: HW
LayerCount: 2
Fore
SplineSet
75 -200 m 1
 75 800 l 1
 202 800 l 1
 202 596 l 1
 390 596 l 1
 392 800 l 1
 519 800 l 1
 519 596 l 1
 707 596 l 1
 707 800 l 1
 834 800 l 1
 834 453 l 1
 202 451 l 1
 202 -36 l 25
 390 -35 l 25
 390 247 l 1
 519 248 l 1
 519 -33 l 1
 707 -35 l 25
 707 247 l 1
 834 247 l 1
 834 -200 l 1
 75 -200 l 1
EndSplineSet
Validated: 1
EndChar

StartChar: E
Encoding: 69 69 30
Width: 785
Flags: HW
LayerCount: 2
Fore
SplineSet
338 546 m 1
 341 393 l 1
 589 546 l 1
 583 277 l 1
 75 274 l 1
 75 -200 l 25
 656 -200 l 1
 703 -65 l 1
 196 -66 l 1
 196 172 l 1
 716 179 l 25
 716 800 l 25
 434 643 l 25
 434 800 l 17
 196 643 l 1
 198 800 l 1
 76 800 l 1
 75 393 l 1
 338 546 l 1
EndSplineSet
Validated: 9
EndChar

StartChar: F
Encoding: 70 70 31
Width: 779
Flags: HW
LayerCount: 2
Fore
SplineSet
87 326 m 25
 183 443 l 1
 260 388 l 25
 167 255 l 1
 87 326 l 25
91 584 m 25
 187 701 l 1
 264 646 l 25
 171 513 l 1
 91 584 l 25
329 326 m 25
 425 443 l 1
 502 388 l 25
 409 255 l 1
 329 326 l 25
333 584 m 25
 429 701 l 1
 506 646 l 25
 413 513 l 1
 333 584 l 25
704 800 m 1
 705 -200 l 1
 53 -200 l 25
 79 -69 l 1
 584 -68 l 25
 586 768 l 1
 704 800 l 1
EndSplineSet
Validated: 1
EndChar

StartChar: G
Encoding: 71 71 32
Width: 715
Flags: HW
LayerCount: 2
Back
Fore
SplineSet
477 32 m 5
 417 -55 l 5
 479 -54 l 5
 547 -58 l 5
 477 32 l 5
242 24 m 1
 168 -64 l 1
 234 -65 l 1
 298 -64 l 1
 242 24 l 1
354 290 m 1
 288 195 l 1
 353 65 l 1
 416 196 l 1
 354 290 l 1
419 189 m 1
 519 593 l 1
 519 800 l 1
 652 800 l 1
 652 586 l 1
 485 87 l 1
 419 189 l 1
282 194 m 1
 211 85 l 1
 65 579 l 1
 65 800 l 1
 203 800 l 1
 203 593 l 1
 282 194 l 1
425 469 m 1
 652 -200 l 1
 373 -200 l 1
 65 -199 l 1
 290 469 l 1
 296 800 l 1
 426 800 l 1
 425 469 l 1
EndSplineSet
Validated: 5
EndChar

StartChar: H
Encoding: 72 72 33
Width: 820
Flags: HW
LayerCount: 2
Fore
SplineSet
155 617 m 1
 417 339 l 1
 357 292 l 1
 68 616 l 1
 155 617 l 1
445 567 m 1
 173 306 l 1
 65 306 l 1
 151.905273438 398.624023438 299.412109375 536.904296875 384 627 c 1
 445 567 l 1
97 800 m 25
 770 800 l 1
 580 466 l 1
 580 446 l 1
 746 233 l 1
 745 -201 l 25
 66 -200 l 25
 66 -86 l 25
 602 -87 l 25
 609 230 l 1
 495 398 l 1
 357 292 l 1
 306 352 l 1
 426 458 l 1
 327 568 l 1
 384 627 l 1
 508 506 l 1
 630 706 l 1
 71 707 l 1
 97 800 l 25
EndSplineSet
Validated: 524293
EndChar

StartChar: I
Encoding: 73 73 34
Width: 1017
Flags: HW
LayerCount: 2
Fore
SplineSet
44 799 m 1
 536 800 l 1
 536 657 l 1
 372 656 l 1
 371 584 l 25
 550 390 l 1
 308 284 l 1
 310 -200 l 1
 180 -200 l 1
 182 339 l 1
 350 399 l 25
 44 799 l 1
828 176 m 25
 954 210 l 25
 952 -146 l 25
 828 -200 l 25
 828 176 l 25
400 799 m 1
 892 800 l 1
 892 657 l 1
 728 656 l 1
 727 584 l 25
 906 390 l 1
 664 284 l 1
 666 -200 l 1
 536 -200 l 1
 538 339 l 1
 706 399 l 25
 400 799 l 1
EndSplineSet
Validated: 5
EndChar

StartChar: J
Encoding: 74 74 35
Width: 794
Flags: HW
LayerCount: 2
Back
Fore
SplineSet
69 798 m 25
 183 799 l 1
 183 589 l 1
 329 428 l 25
 329 800 l 1
 443 800 l 1
 443 561 l 1
 589 451 l 25
 589 800 l 1
 703 800 l 1
 703 236 l 29
 244 -100 l 1
 735 -101 l 1
 731 -200 l 1
 74 -200 l 1
 75 -99 l 1
 523 286 l 1
 523 327 l 1
 459 388 l 1
 343 276 l 1
 196 424 l 1
 69 556 l 1
 69 798 l 25
EndSplineSet
Validated: 1
EndChar

StartChar: K
Encoding: 75 75 36
Width: 817
Flags: HW
LayerCount: 2
Fore
SplineSet
349 -201 m 25
 345 397 l 25
 489 415 l 25
 491 -178 l 25
 349 -201 l 25
75 -201 m 25
 75 397 l 25
 215 421 l 25
 217 -176 l 25
 75 -201 l 25
75 800 m 17
 75 579 l 1
 215 597 l 25
 215 682 l 1
 345 683 l 1
 345 537 l 1
 480 555 l 25
 480 635 l 1
 610 636 l 1
 610 487 l 1
 754 505 l 1
 754 800 l 9
 75 800 l 17
EndSplineSet
Validated: 9
EndChar

StartChar: L
Encoding: 76 76 37
Width: 938
Flags: HW
LayerCount: 2
Fore
SplineSet
53 731 m 5
 164 803 l 29
 406 648 l 5
 295 575 l 29
 53 731 l 5
436 731 m 1
 547 803 l 25
 789 648 l 1
 678 575 l 25
 436 731 l 1
81 -200 m 1
 83 443 l 1
 219 474 l 1
 221 -95 l 1
 399 -93 l 1
 401 175 l 25
 545 220 l 1
 545 -92 l 9
 723 -93 l 17
 723 175 l 25
 867 220 l 1
 867 -200 l 25
 81 -200 l 1
EndSplineSet
Validated: 1
EndChar

StartChar: M
Encoding: 77 77 38
Width: 968
Flags: HW
LayerCount: 2
Back
Fore
SplineSet
393 391 m 17
 565 408 l 1
 565 228 l 1
 730 391 l 1
 894 413 l 1
 894 -167 l 1
 725 -199 l 1
 727 196 l 1
 586 64 l 25
 414 56 l 25
 417 187 l 25
 276 47 l 25
 78 47 l 1
 78 391 l 1
 255 408 l 1
 255 228 l 9
 393 391 l 17
393 643 m 1
 393 752 l 1
 565 799 l 1
 565 643 l 1
 721 643 l 1
 722 752 l 1
 894 799 l 1
 894 506 l 9
 65 507 l 17
 65 752 l 9
 237 800 l 25
 237 643 l 25
 393 643 l 1
EndSplineSet
Validated: 1
EndChar

StartChar: N
Encoding: 78 78 39
Width: 1077
Flags: HW
LayerCount: 2
Back
Fore
SplineSet
243 460 m 1
 244 579 l 25
 105 578 l 1
 107 709 l 25
 371 708 l 25
 371 461 l 25
 243 460 l 1
537 -9 m 1
 537 283 l 1
 338 -9 l 1
 537 -9 l 1
831 187 m 21
 1031 -200 l 1
 44 -200 l 25
 448 436 l 25
 454 799 l 25
 621 799 l 25
 623 436 l 1
 728 306 l 9
 727 652 l 1
 875 655 l 25
 873 436 l 1
 831 187 l 21
EndSplineSet
Validated: 1
EndChar

StartChar: O
Encoding: 79 79 40
Width: 883
Flags: HW
LayerCount: 2
Fore
SplineSet
220.8828125 614.758789062 m 1
 219 720 l 1
 76 720 l 1
 74.7333984375 624.90234375 l 1
 225 290 l 1
 52 -124 l 1
 208 -186 l 1
 406 249 l 1
 406 -199 l 1
 556 -134 l 1
 557.36328125 212.297851562 l 1
 670 317 l 17
 662 -200 l 1
 804 -200 l 1
 814 800 l 1
 663 800 l 1
 664 495 l 1
 586 422 l 25
 520 358 l 1
 524 800 l 1
 388 800 l 1
 388 655 l 1
 299 480 l 5
 220.8828125 614.758789062 l 1
EndSplineSet
Validated: 524297
EndChar

StartChar: P
Encoding: 80 80 41
Width: 909
Flags: HW
LayerCount: 2
Fore
SplineSet
334 303 m 1
 256 364 l 1
 633 800 l 1
 735 713 l 1
 501 437 l 1
 499 -201 l 1
 337 -200 l 1
 334 303 l 1
834 371.453125 m 1
 832 503 l 9
 724 533 l 1
 580 352 l 1
 697 352 l 1
 697 -200 l 1
 842 -200 l 1
 834 371.453125 l 1
64 26 m 1
 66 509 l 1
 297 800 l 1
 393 720 l 1
 206 497 l 1
 199 26 l 1
 64 26 l 1
EndSplineSet
Validated: 524297
EndChar

StartChar: Q
Encoding: 81 81 42
Width: 877
Flags: HW
LayerCount: 2
Back
Fore
SplineSet
597 643 m 9
 494 418 l 1
 468 376 l 1
 404 276 l 1
 373 222 l 1
 509 191 l 1
 517 -200 l 1
 675 -155 l 1
 676 0 l 1
 779 101 l 1
 675 143 l 1
 674 263 l 1
 686 310 l 1
 632 351 l 1
 786 688 l 1
 833 800 l 1
 558 798 l 1
 158 798 l 1
 103 646 l 25
 281 646 l 25
 178 416 l 1
 152 374 l 1
 88 274 l 1
 47 199 l 1
 219 165 l 1
 218 -202 l 1
 359 -157 l 1
 360 -2 l 1
 509 191 l 1
 373 222 l 1
 381 234 l 1
 404 276 l 1
 316 349 l 1
 470 643 l 1
 597 643 l 9
EndSplineSet
Validated: 5
EndChar

StartChar: R
Encoding: 82 82 43
Width: 871
Flags: HW
LayerCount: 2
Fore
SplineSet
369 -200 m 25
 371 155 l 1
 371 191 l 25
 183 -200 l 1
 49 -121 l 1
 191 194 l 1
 98 194 l 1
 98 800 l 1
 247 800 l 1
 247 329 l 1
 277 378 l 1
 368 548 l 1
 370 800 l 9
 528 800 l 17
 528 329 l 1
 558 378 l 1
 649 548 l 1
 651 800 l 1
 800 800 l 1
 798 -119 l 1
 652 -200 l 25
 652 155 l 1
 652 191 l 25
 464 -200 l 9
 369 -200 l 25
EndSplineSet
Validated: 1
EndChar

StartChar: S
Encoding: 83 83 44
Width: 944
Flags: HW
LayerCount: 2
Fore
SplineSet
69 800 m 25
 221 800 l 1
 221 331 l 1
 589 -200 l 1
 70 -200 l 1
 114 -61 l 1
 311 -61 l 25
 70 302 l 1
 69 800 l 25
554 549 m 1
 672 682 l 1
 791 615 l 1
 680 469 l 1
 554 549 l 1
378 800 m 25
 530 800 l 1
 530 331 l 1
 898 -200 l 1
 379 -200 l 1
 423 -61 l 1
 620 -61 l 25
 379 302 l 1
 378 800 l 25
EndSplineSet
Validated: 5
EndChar

StartChar: T
Encoding: 84 84 45
Width: 939
Flags: HW
LayerCount: 2
Fore
SplineSet
128 800 m 25
 527 800 l 25
 521 513 l 25
 241 217 l 25
 52 219 l 25
 362 514 l 1
 363 645 l 25
 126 644 l 5
 128 800 l 25
727 23 m 1
 728 221 l 1
 864 234 l 1
 863 -200 l 25
 55 -200 l 1
 122 -60 l 1
 720 -58 l 25
 735 -41 l 25
 735 4 l 1
 727 23 l 1
490 800 m 25
 869 800 l 25
 869 438 l 25
 603 217 l 25
 414 219 l 25
 723 514 l 1
 725 645 l 25
 475 644 l 1
 490 800 l 25
EndSplineSet
Validated: 5
EndChar

StartChar: U
Encoding: 85 85 46
Width: 860
Flags: HW
LayerCount: 2
Fore
SplineSet
644 300 m 21
 644 748 l 1
 790 800 l 1
 790 145 l 1
 503 145 l 1
 215 145 l 25
 215 -167 l 1
 73 -200 l 25
 73 748 l 1
 217 800 l 1
 217 300 l 1
 357 300 l 1
 357 748 l 1
 503 800 l 1
 504 300 l 9
 644 300 l 21
EndSplineSet
Validated: 1
EndChar

StartChar: V
Encoding: 86 86 47
Width: 859
Flags: HW
LayerCount: 2
Fore
SplineSet
108 673 m 25
 144 800 l 1
 534 800 l 25
 179 116 l 25
 179 -190 l 25
 65 -199 l 25
 64 123 l 25
 329 672 l 1
 108 673 l 25
640 274 m 25
 768 328 l 25
 768 -184 l 25
 640 -200 l 25
 640 274 l 25
387 673 m 25
 423 800 l 1
 813 800 l 25
 458 116 l 25
 458 -190 l 25
 344 -199 l 25
 343 123 l 25
 608 672 l 1
 387 673 l 25
EndSplineSet
Validated: 5
EndChar

StartChar: W
Encoding: 87 87 48
Width: 800
Flags: HW
LayerCount: 2
Fore
SplineSet
510 608 m 1
 681 800 l 1
 748 738 l 1
 697 673 l 25
 695 257 l 1
 584 256 l 1
 583 539 l 1
 510 608 l 1
68 -200 m 25
 68 208 l 1
 188 208 l 25
 188 -84 l 1
 729 -85 l 5
 728 -201 l 5
 68 -200 l 25
84 498 m 25
 392 800 l 25
 496 723 l 25
 411 637 l 25
 413 257 l 1
 271 256 l 1
 271 500 l 1
 176 410 l 1
 84 498 l 25
EndSplineSet
Validated: 1
EndChar

StartChar: X
Encoding: 88 88 49
Width: 920
Flags: HW
LayerCount: 2
Fore
SplineSet
202 800 m 25
 204 254 l 25
 555 -141 l 25
 555 -200 l 25
 86 -200 l 25
 144 -66 l 25
 280 -66 l 25
 65 176 l 25
 69 720 l 25
 202 800 l 25
513 800 m 25
 515 254 l 25
 866 -141 l 25
 866 -200 l 25
 397 -200 l 25
 455 -66 l 25
 591 -66 l 25
 376 176 l 25
 380 720 l 25
 513 800 l 25
654 725 m 25
 785 800 l 25
 788 332 l 25
 656 290 l 25
 654 725 l 25
EndSplineSet
Validated: 5
EndChar

StartChar: Y
Encoding: 89 89 50
Width: 805
Flags: HW
LayerCount: 2
Fore
SplineSet
310 800 m 25
 454 800 l 1
 753 -21 l 25
 609 -23 l 1
 310 800 l 25
224 204 m 25
 361 -200 l 25
 82 -200 l 25
 111 -99 l 25
 171 -99 l 25
 75 204 l 25
 224 204 l 25
502 800 m 25
 646 800 l 25
 752 518 l 25
 608 517 l 25
 502 800 l 25
51 800 m 25
 195 800 l 1
 494 -21 l 25
 350 -23 l 1
 51 800 l 25
EndSplineSet
Validated: 1
EndChar

StartChar: Z
Encoding: 90 90 51
Width: 851
Flags: HW
LayerCount: 2
Fore
SplineSet
343 310 m 17
 467 340 l 1
 483 -200 l 1
 347 -200 l 1
 347 54 l 1
 179 -200 l 1
 45 -200 l 5
 343 310 l 17
647 310 m 1
 653 770 l 1
 777 800 l 25
 779 -151 l 25
 651 -199 l 1
 651 54 l 25
 483 -200 l 1
 347 -200 l 1
 647 310 l 1
121 770 m 25
 241 800 l 25
 243 424 l 25
 121 394 l 25
 121 770 l 25
EndSplineSet
Validated: 5
EndChar

StartChar: zero
Encoding: 48 48 53
Width: 700
Flags: HW
LayerCount: 2
Fore
SplineSet
74 -200 m 1
 75 803 l 1
 246 800 l 25
 246 407 l 1
 624 708 l 5
 624 -200 l 1
 432 -200 l 1
 432 327 l 1
 258 207 l 1
 258 -200 l 1
 74 -200 l 1
EndSplineSet
Validated: 1
EndChar

StartChar: one
Encoding: 49 49 54
Width: 696
Flags: HW
LayerCount: 2
Fore
SplineSet
247 800 m 25
 74 800 l 1
 74 -200 l 1
 258 -200 l 1
 387 -200 l 1
 624 -200 l 9
 624 -39 l 25
 508 -39 l 25
 397 -39 l 25
 247 -39 l 29
 247 800 l 25
EndSplineSet
Validated: 9
EndChar

StartChar: two
Encoding: 50 50 55
Width: 699
Flags: HW
LayerCount: 2
Fore
SplineSet
247 800 m 29
 74 800 l 1
 74 -200 l 1
 258 -200 l 1
 387 -200 l 1
 624 -200 l 9
 624 224 l 25
 458 224 l 25
 455 -39 l 25
 247 -39 l 25
 247 800 l 29
EndSplineSet
Validated: 9
EndChar

StartChar: exclam
Encoding: 33 33 56
Width: 536
Flags: HW
LayerCount: 2
Back
Fore
SplineSet
105 -199 m 29
 189 -115 l 29
 328 -199 l 25
 412 -105 l 25
 310 -17 l 25
 313 262 l 25
 423 262 l 25
 482 780 l 25
 416 800 l 25
 137 628 l 29
 175 556 l 29
 368 648 l 25
 349 338 l 25
 130 342 l 29
 100 254 l 29
 192 260 l 29
 191 -21 l 29
 47 -111 l 29
 105 -199 l 29
EndSplineSet
Validated: 9
EndChar

StartChar: question
Encoding: 63 63 57
Width: 576
Flags: HW
LayerCount: 2
Back
Fore
SplineSet
48 -133 m 29
 270 97 l 25
 524 -93 l 25
 426 -201 l 25
 276 -97 l 25
 174 -199 l 25
 48 -133 l 29
66 684 m 25
 202 798 l 25
 524 230 l 25
 390 122 l 25
 66 684 l 25
EndSplineSet
Validated: 1
EndChar
